<svg xmlns="http://www.w3.org/2000/svg" xmlns:xlink="http://www.w3.org/1999/xlink" width="135" zoomAndPan="magnify" viewBox="0 0 101.25 30.000001" height="40" preserveAspectRatio="xMidYMid meet" version="1.0"><defs><g/><clipPath id="f5bf60c8b5"><path d="M 1.269531 7 L 12 7 L 12 21 L 1.269531 21 Z M 1.269531 7 " clip-rule="nonzero"/></clipPath></defs><g clip-path="url(#f5bf60c8b5)"><g fill="#22a7f1" fill-opacity="1"><g transform="translate(1.211188, 19.959679)"><g><path d="M 6.640625 0.265625 C 4.796875 0.265625 3.359375 -0.28125 2.328125 -1.375 C 1.296875 -2.46875 0.78125 -4.019531 0.78125 -6.03125 C 0.78125 -7.351562 1.003906 -8.488281 1.453125 -9.4375 C 1.910156 -10.394531 2.550781 -11.113281 3.375 -11.59375 C 4.195312 -12.082031 5.148438 -12.328125 6.234375 -12.328125 C 6.878906 -12.328125 7.539062 -12.140625 8.21875 -11.765625 C 8.46875 -11.628906 8.71875 -11.445312 8.96875 -11.21875 C 9.164062 -11.507812 9.367188 -11.742188 9.578125 -11.921875 C 9.785156 -12.066406 9.898438 -12.144531 9.921875 -12.15625 L 10.34375 -12.15625 L 10.34375 -8.890625 L 9.65625 -8.890625 C 9.507812 -9.441406 9.285156 -9.941406 8.984375 -10.390625 C 8.710938 -10.828125 8.367188 -11.1875 7.953125 -11.46875 C 7.546875 -11.757812 7.082031 -11.90625 6.5625 -11.90625 C 5.757812 -11.90625 5.097656 -11.441406 4.578125 -10.515625 C 4.054688 -9.597656 3.796875 -8.101562 3.796875 -6.03125 C 3.796875 -3.925781 4.078125 -2.421875 4.640625 -1.515625 C 5.210938 -0.617188 5.992188 -0.171875 6.984375 -0.171875 C 7.523438 -0.171875 8.039062 -0.320312 8.53125 -0.625 C 9.019531 -0.9375 9.414062 -1.34375 9.71875 -1.84375 C 10.019531 -2.351562 10.171875 -2.890625 10.171875 -3.453125 L 10.609375 -3.453125 C 10.609375 -2.796875 10.429688 -2.179688 10.078125 -1.609375 C 9.734375 -1.046875 9.257812 -0.59375 8.65625 -0.25 C 8.050781 0.09375 7.378906 0.265625 6.640625 0.265625 Z M 6.640625 0.265625 "/></g></g></g></g><g fill="#22a7f1" fill-opacity="1"><g transform="translate(12.415858, 19.959679)"><g><path d="M 4.046875 0.265625 C 3.023438 0.265625 2.238281 0.046875 1.6875 -0.390625 C 1.132812 -0.828125 0.859375 -1.382812 0.859375 -2.0625 C 0.859375 -2.519531 0.957031 -2.960938 1.15625 -3.390625 C 1.238281 -3.597656 1.34375 -3.789062 1.46875 -3.96875 C 1.9375 -4.082031 2.445312 -4.1875 3 -4.28125 C 4.238281 -4.488281 5.335938 -4.613281 6.296875 -4.65625 L 6.296875 -5.171875 C 6.296875 -6.453125 6.140625 -7.332031 5.828125 -7.8125 C 5.515625 -8.289062 5.039062 -8.53125 4.40625 -8.53125 C 4.15625 -8.53125 3.945312 -8.503906 3.78125 -8.453125 L 3.53125 -8.359375 L 3.53125 -5.78125 L 3.3125 -5.734375 C 3.125 -5.703125 2.96875 -5.6875 2.84375 -5.6875 C 2.457031 -5.6875 2.144531 -5.804688 1.90625 -6.046875 C 1.664062 -6.285156 1.546875 -6.597656 1.546875 -6.984375 C 1.546875 -7.515625 1.8125 -7.960938 2.34375 -8.328125 C 2.882812 -8.703125 3.6875 -8.890625 4.75 -8.890625 C 5.644531 -8.890625 6.414062 -8.726562 7.0625 -8.40625 C 7.707031 -8.09375 8.203125 -7.65625 8.546875 -7.09375 C 8.890625 -6.539062 9.0625 -5.898438 9.0625 -5.171875 L 9.0625 -0.515625 L 10.09375 -0.265625 L 10.09375 0 L 8.53125 0 C 7.84375 0 7.3125 -0.210938 6.9375 -0.640625 C 6.769531 -0.804688 6.644531 -1.023438 6.5625 -1.296875 C 6.394531 -1.003906 6.203125 -0.742188 5.984375 -0.515625 C 5.460938 0.00390625 4.816406 0.265625 4.046875 0.265625 Z M 4.75 -0.34375 C 5.164062 -0.34375 5.550781 -0.570312 5.90625 -1.03125 C 6.03125 -1.207031 6.160156 -1.4375 6.296875 -1.71875 L 6.296875 -4.21875 C 5.765625 -4.21875 5.257812 -4.191406 4.78125 -4.140625 C 4.425781 -4.097656 4.179688 -4.066406 4.046875 -4.046875 C 3.992188 -3.921875 3.9375 -3.75 3.875 -3.53125 C 3.757812 -3.09375 3.703125 -2.664062 3.703125 -2.25 C 3.703125 -1.601562 3.800781 -1.125 4 -0.8125 C 4.195312 -0.5 4.445312 -0.34375 4.75 -0.34375 Z M 4.75 -0.34375 "/></g></g></g><g fill="#22a7f1" fill-opacity="1"><g transform="translate(22.844818, 19.959679)"><g><path d="M 0.6875 -0.265625 L 1.71875 -0.515625 L 1.71875 -8.109375 L 0.6875 -8.359375 L 0.6875 -8.625 L 2.25 -8.625 C 2.925781 -8.625 3.457031 -8.40625 3.84375 -7.96875 C 4 -7.789062 4.125 -7.578125 4.21875 -7.328125 C 4.394531 -7.578125 4.609375 -7.804688 4.859375 -8.015625 C 5.441406 -8.484375 6.085938 -8.71875 6.796875 -8.71875 C 7.398438 -8.71875 7.851562 -8.570312 8.15625 -8.28125 C 8.46875 -8 8.625 -7.597656 8.625 -7.078125 C 8.625 -6.679688 8.503906 -6.363281 8.265625 -6.125 C 8.035156 -5.894531 7.722656 -5.78125 7.328125 -5.78125 C 7.171875 -5.78125 7.007812 -5.789062 6.84375 -5.8125 L 6.640625 -5.859375 L 6.640625 -8.28125 C 6.054688 -8.28125 5.519531 -8.050781 5.03125 -7.59375 C 4.800781 -7.363281 4.617188 -7.132812 4.484375 -6.90625 L 4.484375 -0.515625 L 5.515625 -0.265625 L 5.515625 0 L 0.6875 0 Z M 0.6875 -0.265625 "/></g></g></g><g fill="#22a7f1" fill-opacity="1"><g transform="translate(31.549988, 19.959679)"><g><path d="M 4.75 3.703125 C 3.71875 3.703125 2.878906 3.609375 2.234375 3.421875 C 1.597656 3.242188 1.140625 3.007812 0.859375 2.71875 C 0.578125 2.4375 0.4375 2.132812 0.4375 1.8125 C 0.4375 1.414062 0.550781 1.097656 0.78125 0.859375 C 1.019531 0.628906 1.332031 0.515625 1.71875 0.515625 C 1.8125 0.515625 1.976562 0.53125 2.21875 0.5625 L 2.421875 0.609375 L 2.421875 3.015625 C 2.554688 3.066406 2.773438 3.125 3.078125 3.1875 C 3.597656 3.300781 4.097656 3.359375 4.578125 3.359375 C 5.972656 3.359375 6.992188 3.160156 7.640625 2.765625 C 8.296875 2.367188 8.625 1.878906 8.625 1.296875 C 8.625 0.546875 7.9375 0.171875 6.5625 0.171875 L 3.28125 0.171875 C 2.414062 0.171875 1.753906 -0.00390625 1.296875 -0.359375 C 0.835938 -0.710938 0.609375 -1.164062 0.609375 -1.71875 C 0.609375 -2.269531 0.878906 -2.757812 1.421875 -3.1875 C 1.640625 -3.351562 1.914062 -3.5 2.25 -3.625 C 1.820312 -3.882812 1.507812 -4.195312 1.3125 -4.5625 C 1.125 -4.925781 1.03125 -5.359375 1.03125 -5.859375 C 1.03125 -6.710938 1.351562 -7.398438 2 -7.921875 C 2.644531 -8.453125 3.585938 -8.71875 4.828125 -8.71875 C 5.367188 -8.71875 5.863281 -8.660156 6.3125 -8.546875 C 6.769531 -8.441406 7.140625 -8.296875 7.421875 -8.109375 C 7.515625 -8.304688 7.632812 -8.476562 7.78125 -8.625 C 8.125 -8.96875 8.550781 -9.140625 9.0625 -9.140625 C 9.445312 -9.140625 9.769531 -9.003906 10.03125 -8.734375 C 10.300781 -8.460938 10.4375 -8.109375 10.4375 -7.671875 C 10.4375 -7.335938 10.347656 -7.066406 10.171875 -6.859375 C 9.992188 -6.660156 9.765625 -6.5625 9.484375 -6.5625 C 9.359375 -6.5625 9.21875 -6.570312 9.0625 -6.59375 L 8.890625 -6.640625 L 8.890625 -8.71875 C 8.585938 -8.71875 8.300781 -8.570312 8.03125 -8.28125 C 7.9375 -8.175781 7.847656 -8.03125 7.765625 -7.84375 C 8.335938 -7.34375 8.625 -6.679688 8.625 -5.859375 C 8.625 -5.015625 8.300781 -4.328125 7.65625 -3.796875 C 7.007812 -3.273438 6.066406 -3.015625 4.828125 -3.015625 C 4.003906 -3.015625 3.257812 -3.160156 2.59375 -3.453125 L 2.25 -3.28125 C 2.125 -3.207031 2.03125 -3.140625 1.96875 -3.078125 C 1.914062 -3.015625 1.890625 -2.9375 1.890625 -2.84375 C 1.890625 -2.644531 1.988281 -2.492188 2.1875 -2.390625 C 2.394531 -2.296875 2.757812 -2.25 3.28125 -2.25 L 6.5625 -2.25 C 7.414062 -2.25 8.085938 -1.992188 8.578125 -1.484375 C 9.066406 -0.984375 9.3125 -0.285156 9.3125 0.609375 C 9.3125 1.523438 8.925781 2.269531 8.15625 2.84375 C 7.394531 3.414062 6.257812 3.703125 4.75 3.703125 Z M 4.828125 -3.359375 C 5.210938 -3.359375 5.507812 -3.539062 5.71875 -3.90625 C 5.925781 -4.28125 6.03125 -4.929688 6.03125 -5.859375 C 6.03125 -6.796875 5.925781 -7.445312 5.71875 -7.8125 C 5.507812 -8.175781 5.210938 -8.359375 4.828125 -8.359375 C 4.453125 -8.359375 4.15625 -8.175781 3.9375 -7.8125 C 3.726562 -7.445312 3.625 -6.796875 3.625 -5.859375 C 3.625 -4.929688 3.726562 -4.28125 3.9375 -3.90625 C 4.15625 -3.539062 4.453125 -3.359375 4.828125 -3.359375 Z M 4.828125 -3.359375 "/></g></g></g><g fill="#22a7f1" fill-opacity="1"><g transform="translate(41.978948, 19.959679)"><g><path d="M 5.265625 0.265625 C 3.835938 0.265625 2.71875 -0.140625 1.90625 -0.953125 C 1.09375 -1.765625 0.6875 -2.882812 0.6875 -4.3125 C 0.6875 -5.738281 1.09375 -6.859375 1.90625 -7.671875 C 2.71875 -8.484375 3.835938 -8.890625 5.265625 -8.890625 C 6.691406 -8.890625 7.804688 -8.484375 8.609375 -7.671875 C 9.421875 -6.859375 9.828125 -5.738281 9.828125 -4.3125 C 9.828125 -2.882812 9.421875 -1.765625 8.609375 -0.953125 C 7.804688 -0.140625 6.691406 0.265625 5.265625 0.265625 Z M 5.265625 -0.09375 C 5.722656 -0.09375 6.109375 -0.410156 6.421875 -1.046875 C 6.742188 -1.691406 6.90625 -2.78125 6.90625 -4.3125 C 6.90625 -5.84375 6.742188 -6.925781 6.421875 -7.5625 C 6.109375 -8.207031 5.722656 -8.53125 5.265625 -8.53125 C 4.804688 -8.53125 4.414062 -8.207031 4.09375 -7.5625 C 3.78125 -6.925781 3.625 -5.84375 3.625 -4.3125 C 3.625 -2.78125 3.78125 -1.691406 4.09375 -1.046875 C 4.414062 -0.410156 4.804688 -0.09375 5.265625 -0.09375 Z M 5.265625 -0.09375 "/></g></g></g><g fill="#042475" fill-opacity="1"><g transform="translate(52.50529, 19.959679)"><g><path d="M 6.640625 0.265625 C 4.796875 0.265625 3.359375 -0.28125 2.328125 -1.375 C 1.296875 -2.46875 0.78125 -4.019531 0.78125 -6.03125 C 0.78125 -7.351562 1.003906 -8.488281 1.453125 -9.4375 C 1.910156 -10.394531 2.550781 -11.113281 3.375 -11.59375 C 4.195312 -12.082031 5.148438 -12.328125 6.234375 -12.328125 C 6.878906 -12.328125 7.539062 -12.140625 8.21875 -11.765625 C 8.46875 -11.628906 8.71875 -11.445312 8.96875 -11.21875 C 9.164062 -11.507812 9.367188 -11.742188 9.578125 -11.921875 C 9.785156 -12.066406 9.898438 -12.144531 9.921875 -12.15625 L 10.34375 -12.15625 L 10.34375 -8.890625 L 9.65625 -8.890625 C 9.507812 -9.441406 9.285156 -9.941406 8.984375 -10.390625 C 8.710938 -10.828125 8.367188 -11.1875 7.953125 -11.46875 C 7.546875 -11.757812 7.082031 -11.90625 6.5625 -11.90625 C 5.757812 -11.90625 5.097656 -11.441406 4.578125 -10.515625 C 4.054688 -9.597656 3.796875 -8.101562 3.796875 -6.03125 C 3.796875 -3.925781 4.078125 -2.421875 4.640625 -1.515625 C 5.210938 -0.617188 5.992188 -0.171875 6.984375 -0.171875 C 7.523438 -0.171875 8.039062 -0.320312 8.53125 -0.625 C 9.019531 -0.9375 9.414062 -1.34375 9.71875 -1.84375 C 10.019531 -2.351562 10.171875 -2.890625 10.171875 -3.453125 L 10.609375 -3.453125 C 10.609375 -2.796875 10.429688 -2.179688 10.078125 -1.609375 C 9.734375 -1.046875 9.257812 -0.59375 8.65625 -0.25 C 8.050781 0.09375 7.378906 0.265625 6.640625 0.265625 Z M 6.640625 0.265625 "/></g></g></g><g fill="#042475" fill-opacity="1"><g transform="translate(63.709961, 19.959679)"><g><path d="M 0.6875 -0.265625 L 1.71875 -0.515625 L 1.71875 -11.5625 L 0.6875 -11.8125 L 0.6875 -12.078125 L 2.9375 -12.078125 C 3.96875 -12.078125 4.484375 -11.554688 4.484375 -10.515625 L 4.484375 -0.515625 L 5.515625 -0.265625 L 5.515625 0 L 0.6875 0 Z M 0.6875 -0.265625 "/></g></g></g><g fill="#042475" fill-opacity="1"><g transform="translate(69.570868, 19.959679)"><g><path d="M 4.046875 0.265625 C 3.023438 0.265625 2.238281 0.046875 1.6875 -0.390625 C 1.132812 -0.828125 0.859375 -1.382812 0.859375 -2.0625 C 0.859375 -2.519531 0.957031 -2.960938 1.15625 -3.390625 C 1.238281 -3.597656 1.34375 -3.789062 1.46875 -3.96875 C 1.9375 -4.082031 2.445312 -4.1875 3 -4.28125 C 4.238281 -4.488281 5.335938 -4.613281 6.296875 -4.65625 L 6.296875 -5.171875 C 6.296875 -6.453125 6.140625 -7.332031 5.828125 -7.8125 C 5.515625 -8.289062 5.039062 -8.53125 4.40625 -8.53125 C 4.15625 -8.53125 3.945312 -8.503906 3.78125 -8.453125 L 3.53125 -8.359375 L 3.53125 -5.78125 L 3.3125 -5.734375 C 3.125 -5.703125 2.96875 -5.6875 2.84375 -5.6875 C 2.457031 -5.6875 2.144531 -5.804688 1.90625 -6.046875 C 1.664062 -6.285156 1.546875 -6.597656 1.546875 -6.984375 C 1.546875 -7.515625 1.8125 -7.960938 2.34375 -8.328125 C 2.882812 -8.703125 3.6875 -8.890625 4.75 -8.890625 C 5.644531 -8.890625 6.414062 -8.726562 7.0625 -8.40625 C 7.707031 -8.09375 8.203125 -7.65625 8.546875 -7.09375 C 8.890625 -6.539062 9.0625 -5.898438 9.0625 -5.171875 L 9.0625 -0.515625 L 10.09375 -0.265625 L 10.09375 0 L 8.53125 0 C 7.84375 0 7.3125 -0.210938 6.9375 -0.640625 C 6.769531 -0.804688 6.644531 -1.023438 6.5625 -1.296875 C 6.394531 -1.003906 6.203125 -0.742188 5.984375 -0.515625 C 5.460938 0.00390625 4.816406 0.265625 4.046875 0.265625 Z M 4.75 -0.34375 C 5.164062 -0.34375 5.550781 -0.570312 5.90625 -1.03125 C 6.03125 -1.207031 6.160156 -1.4375 6.296875 -1.71875 L 6.296875 -4.21875 C 5.765625 -4.21875 5.257812 -4.191406 4.78125 -4.140625 C 4.425781 -4.097656 4.179688 -4.066406 4.046875 -4.046875 C 3.992188 -3.921875 3.9375 -3.75 3.875 -3.53125 C 3.757812 -3.09375 3.703125 -2.664062 3.703125 -2.25 C 3.703125 -1.601562 3.800781 -1.125 4 -0.8125 C 4.195312 -0.5 4.445312 -0.34375 4.75 -0.34375 Z M 4.75 -0.34375 "/></g></g></g><g fill="#042475" fill-opacity="1"><g transform="translate(79.999828, 19.959679)"><g><path d="M 0.515625 -8.109375 L -0.34375 -8.359375 L -0.34375 -8.625 L 1.8125 -8.625 C 2.40625 -8.625 2.878906 -8.5 3.234375 -8.25 C 3.585938 -8.007812 3.890625 -7.644531 4.140625 -7.15625 L 6.1875 -3.171875 L 8.109375 -7.84375 L 6.8125 -8.359375 L 6.8125 -8.625 L 10 -8.625 L 10 -8.359375 L 8.625 -7.84375 L 5.34375 0.171875 L 4.828125 0.171875 Z M 0.515625 -8.109375 "/></g></g></g><g fill="#042475" fill-opacity="1"><g transform="translate(89.653078, 19.959679)"><g><path d="M 5.34375 0.265625 C 3.875 0.265625 2.726562 -0.140625 1.90625 -0.953125 C 1.09375 -1.765625 0.6875 -2.882812 0.6875 -4.3125 C 0.6875 -5.238281 0.863281 -6.046875 1.21875 -6.734375 C 1.582031 -7.429688 2.082031 -7.960938 2.71875 -8.328125 C 3.351562 -8.703125 4.085938 -8.890625 4.921875 -8.890625 C 5.742188 -8.890625 6.46875 -8.734375 7.09375 -8.421875 C 7.71875 -8.109375 8.203125 -7.6875 8.546875 -7.15625 C 8.890625 -6.632812 9.0625 -6.0625 9.0625 -5.4375 C 9.0625 -5.144531 9.03125 -4.894531 8.96875 -4.6875 L 8.890625 -4.40625 C 8.390625 -4.300781 7.851562 -4.210938 7.28125 -4.140625 C 6.070312 -3.960938 4.851562 -3.875 3.625 -3.875 C 3.625 -2.539062 3.804688 -1.585938 4.171875 -1.015625 C 4.535156 -0.453125 5.039062 -0.171875 5.6875 -0.171875 C 6.132812 -0.171875 6.550781 -0.273438 6.9375 -0.484375 C 7.320312 -0.703125 7.625 -0.984375 7.84375 -1.328125 C 8.070312 -1.679688 8.1875 -2.046875 8.1875 -2.421875 L 8.625 -2.421875 C 8.625 -1.953125 8.484375 -1.507812 8.203125 -1.09375 C 7.929688 -0.6875 7.546875 -0.359375 7.046875 -0.109375 C 6.554688 0.140625 5.988281 0.265625 5.34375 0.265625 Z M 3.625 -4.3125 C 4.351562 -4.3125 4.953125 -4.34375 5.421875 -4.40625 C 5.609375 -4.414062 5.8125 -4.441406 6.03125 -4.484375 C 6.050781 -4.546875 6.082031 -4.671875 6.125 -4.859375 C 6.175781 -5.148438 6.203125 -5.457031 6.203125 -5.78125 C 6.203125 -6.726562 6.078125 -7.421875 5.828125 -7.859375 C 5.578125 -8.304688 5.273438 -8.53125 4.921875 -8.53125 C 4.054688 -8.53125 3.625 -7.125 3.625 -4.3125 Z M 3.625 -4.3125 "/></g></g></g></svg>